PathFileType	4	(X/Y/Z)	../Python\walking\Walking16\task.trc
DataRate	CameraRate	NumFrames	NumMarkers	Units	OrigDataRate	OrigDataStartFrame	OrigNumFrames
200.000000	200.000000	4	30	mm	200.000000	395	452
Frame#	Time	C7			RBAK			CLAV			STRN			RASI			LASI			PE01			RTH1			RTH2			RTH3			RD5M			RTOE			LTH2			LTH3			LTB2			LTB3			LHEE			LTOE			LD5M			LTB1			RTB2			RHEE			RTB3			RTB1			LTH1			LPSI			PE03			PE02			RPSI			T10			
		X1	Y1	Z1	X2	Y2	Z2	X3	Y3	Z3	X4	Y4	Z4	X5	Y5	Z5	X6	Y6	Z6	X7	Y7	Z7	X8	Y8	Z8	X9	Y9	Z9	X10	Y10	Z10	X11	Y11	Z11	X12	Y12	Z12	X13	Y13	Z13	X14	Y14	Z14	X15	Y15	Z15	X16	Y16	Z16	X17	Y17	Z17	X18	Y18	Z18	X19	Y19	Z19	X20	Y20	Z20	X21	Y21	Z21	X22	Y22	Z22	X23	Y23	Z23	X24	Y24	Z24	X25	Y25	Z25	X26	Y26	Z26	X27	Y27	Z27	X28	Y28	Z28	X29	Y29	Z29	X30	Y30	Z30	

396	1.975	1122.581665039063	1357.803833007813	101.8438720703126	1070.582763671875	1259.406127929688	206.8597869873048	1244.452758789063	1263.75390625	105.7250289916993	1303.35107421875	1078.778564453125	115.3675994873047	1260.810913085938	880.0844116210942	233.3894348144532	1276.648315429688	876.1286621093755	9.002020835876468	1073.330200195313	957.420043945313	123.7816696166993	1283.234375	597.3051757812502	264.6303710937501	1329.70654296875	534.0733032226565	250.9389190673829	1333.547729492188	595.298034667969	260.8546752929689	1405.034912109375	40.71258926391603	233.5113525390626	1438.745483398438	56.56104278564456	189.2091064453126	1151.266357421875	562.4495239257815	-9.177829742431644	1226.836181640625	586.3337402343752	-1.671800613403321	1065.02783203125	213.4439544677736	18.5866928100586	1108.91357421875	236.8592834472657	22.30314826965333	1009.357238769532	38.9488868713379	78.84769439697268	1201.17822265625	30.33984184265138	95.74456787109378	1162.297729492188	16.03952026367188	40.86805343627931	1082.069946289063	290.1976623535157	5.867413997650148	1319.35595703125	276.3267517089845	244.8850555419923	1261.929931640625	47.02132415771486	155.4143066406251	1349.344848632813	239.0952758789064	229.2985382080079	1366.0068359375	315.4888916015626	238.5930328369142	1187.261108398438	612.5857543945315	-19.74089813232423	1071.306396484375	923.6834106445317	78.66517639160159	1058.240966796875	898.8069458007817	94.06594848632815	1054.821533203125	896.9815063476567	144.7401580810547	1066.715576171875	920.8612670898442	166.8197021484376	1093.81591796875	1059.230590820313	111.0785598754883	
397	1.98	1128.93115234375	1356.58056640625	101.8734741210938	1076.596069335938	1257.992919921875	206.4938354492189	1250.78076171875	1262.465698242188	105.9379959106446	1309.594970703125	1077.412719726563	115.3845748901368	1267.215209960938	878.9005737304692	233.2081146240236	1282.743774414063	874.886840820313	8.760884284973148	1079.7421875	956.0891723632817	124.1248168945313	1289.912963867188	596.1668090820315	264.114715576172	1336.462036132813	533.0507812500002	250.1392059326173	1340.238647460938	594.2724609375002	260.0742187500001	1426.810668945313	41.56136703491212	233.4049682617189	1459.881713867188	58.64073562622073	189.0126037597657	1154.477905273438	562.1544189453127	-9.455673217773441	1230.227416992188	585.3550415039065	-2.199735403060914	1065.907348632813	213.6116790771486	18.39370727539063	1109.956176757813	236.7539978027345	22.01399993896485	1009.36376953125	39.21919250488283	78.85589599609378	1201.217529296875	30.3373374938965	95.70735168457034	1162.2890625	15.98844718933106	40.84171295166017	1083.384155273438	290.252899169922	5.670930385589601	1332.696655273438	274.5303039550782	244.4979400634767	1283.293334960938	43.13018798828126	155.6508178710938	1363.90185546875	238.2544708251954	229.1497497558595	1377.95458984375	315.1989746093751	238.2776641845704	1190.901611328125	611.9736938476565	-20.08580780029298	1077.472045898438	922.478637695313	78.95633697509768	1064.3603515625	897.5563354492192	94.40337371826175	1061.040405273438	895.7029418945317	145.0745544433594	1072.970336914063	919.4155273437505	166.9875946044922	1100.064208984375	1057.998657226563	110.9902648925782	
398	1.985	1135.300048828125	1355.2880859375	101.9087524414063	1082.641479492188	1256.510986328125	206.1467285156251	1257.132446289063	1261.095581054688	106.1436614990235	1315.865844726563	1075.9658203125	115.3971710205079	1273.646118164063	877.6184692382817	233.0408325195314	1288.846923828125	873.5974731445317	8.521333694458011	1086.187377929688	954.6806030273442	124.521110534668	1296.491577148438	594.8487548828127	263.6946105957032	1343.094604492188	531.8248291015627	249.4414825439454	1346.830688476563	593.0429687500002	259.3917846679689	1448.277221679688	42.67327880859376	233.2158050537111	1480.686401367188	60.96413803100589	188.7597961425782	1157.75	561.8170166015627	-9.703023910522464	1233.683471679688	584.351257324219	-2.807872533798219	1066.85888671875	213.7800903320314	18.21254348754884	1111.068603515625	236.634979248047	21.74271774291993	1009.37109375	39.50733947753908	78.88132476806643	1201.257568359375	30.33718299865724	95.65969085693362	1162.277954101563	15.93592357635499	40.80897903442384	1084.797729492188	290.297332763672	5.49364757537842	1345.901977539063	272.7986145019532	244.0860748291017	1304.525024414063	39.67498016357423	155.7781372070313	1378.273803710938	237.5146484375001	228.9575500488282	1389.7197265625	314.9314270019532	237.9376983642579	1194.570678710938	611.328552246094	-20.44069290161134	1083.648315429688	921.2059936523442	79.29394531250003	1070.493286132813	896.2417602539067	94.78001403808597	1067.2822265625	894.3459472656255	145.4486694335938	1079.24951171875	917.881958007813	167.1924133300782	1106.330322265625	1056.693725585938	110.9388046264649	
399	1.99	1141.689575195313	1353.931518554688	101.9505920410157	1088.72021484375	1254.966064453125	205.8192749023439	1263.50927734375	1259.649047851563	106.3432769775391	1322.16455078125	1074.443481445313	115.4065246582032	1280.103881835938	876.2456054687505	232.8859252929689	1294.960083007813	872.2648925781255	8.282754898071293	1092.666381835938	953.2006835937505	124.9658966064454	1302.972534179688	593.356872558594	263.370574951172	1349.607788085938	530.4017333984377	248.8461456298829	1353.326293945313	591.6140747070315	258.8220520019532	1469.401489257813	44.03348922729494	232.9472656250001	1501.126953125	63.51429367065433	188.4524230957032	1161.091674804688	561.4372558593752	-9.91786098480225	1237.212280273438	583.3245239257815	-3.480228424072267	1067.882934570313	213.9514312744142	18.04477119445801	1112.251220703125	236.5038604736329	21.49277305603028	1009.380554199219	39.81746292114259	78.92462921142581	1201.298217773438	30.33903694152833	95.60264587402347	1162.263061523438	15.88399124145509	40.77025985717775	1086.310913085938	290.3321228027345	5.336315631866457	1358.953979492188	271.1426086425782	243.6525115966798	1325.569946289063	36.6591148376465	155.8080139160157	1392.441528320313	236.8815765380861	228.7280120849611	1401.294189453125	314.6887817382814	237.5752105712892	1198.276611328125	610.6516723632815	-20.80099678039551	1089.836791992188	919.8703613281255	79.674674987793	1076.641723632813	894.8679199218755	95.19351196289065	1073.548950195313	892.9169311523442	145.8606414794922	1085.554565429688	916.268188476563	167.431869506836	1112.615844726563	1055.3212890625	110.9211959838868	
